<svg xmlns="http://www.w3.org/2000/svg" viewBox="0 0 1200 900">
  <rect width="1200" height="900" fill="#eef4f8"/>
  <rect x="85" y="85" width="1030" height="730" rx="36" fill="#102946"/>
  <rect x="165" y="170" width="350" height="500" rx="24" fill="#f5f0df"/>
  <path d="M210 250h260M210 320h180M210 390h230M210 460h150M210 530h260" stroke="#c9a227" stroke-width="16" stroke-linecap="round"/>
  <rect x="610" y="200" width="360" height="250" rx="24" fill="#1b4b76"/>
  <path d="M650 370c55-90 145-150 270-180" stroke="#c9a227" stroke-width="12" fill="none"/>
  <circle cx="715" cy="305" r="18" fill="#f5f0df"/>
  <circle cx="840" cy="260" r="18" fill="#f5f0df"/>
  <rect x="640" y="520" width="300" height="120" rx="22" fill="#dce7f0"/>
  <circle cx="725" cy="580" r="42" fill="#102946"/>
  <circle cx="855" cy="580" r="42" fill="#102946"/>
  <text x="165" y="760" fill="#ffffff" font-family="Georgia, 'Times New Roman', serif" font-size="58" font-weight="700">Navigation Support</text>
  <text x="165" y="812" fill="#d7e2ee" font-family="Arial, Helvetica, sans-serif" font-size="28">Nautical publications, digital charts, and bridge-team readiness</text>
</svg>
